<?xml version="1.0" encoding="utf-8"?>
<!-- Generator: Adobe Illustrator 24.1.1, SVG Export Plug-In . SVG Version: 6.00 Build 0)  -->
<svg version="1.1" id="Layer_1" xmlns="http://www.w3.org/2000/svg" xmlns:xlink="http://www.w3.org/1999/xlink" x="0px" y="0px"
	 viewBox="0 0 512 512" style="enable-background:new 0 0 512 512;" xml:space="preserve">
<g>
	<path d="M161.9,21.9v21.9h131.2V0H161.9v43.7V21.9v21.9h131.2V0H161.9v43.7V21.9z M406.6,425.9L393,408.7l-52.4,41.6l-79.4-102.1
		l-53,61.8l-38.9-217.9l198.1,99.1l-78.6,26.2l100.9,122.4L406.6,425.9L393,408.7L406.6,425.9l16.9-13.9l-60.4-73.2l118.3-39.4
		L110.8,114l70.4,394.5l78.2-91.2l73.7,94.7l104.5-82.9l-14.2-17.2L406.6,425.9z M424.3,87.5V0h-87.5v43.7l43.7,0l0,43.7H424.3
		L424.3,87.5z M118.1,0H30.7v87.5h43.7l0-43.7l43.7,0V0L118.1,0z M30.7,306.2v87.5h87.5v-43.7l-43.7,0l0-43.7H30.7z M402.5,131.2
		h-21.9v87.5h43.7v-87.5h-43.7H402.5h-21.9v87.5h43.7v-87.5h-43.7H402.5z M52.5,262.4h21.9V131.2H30.7v131.2h43.7H52.5h21.9V131.2
		H30.7v131.2h43.7H52.5z"/>
</g>
</svg>
